<svg width="65" height="24" viewBox="0 0 65 24" fill="none" xmlns="http://www.w3.org/2000/svg">
<path d="M0 12C0 5.37258 5.37258 0 12 0H53C59.6274 0 65 5.37258 65 12V12C65 18.6274 59.6274 24 53 24H12C5.37258 24 0 18.6274 0 12V12Z" fill="#3DC564"/>
<path d="M19.2712 13.902H11.6243C11.7825 14.7106 12.1536 15.3476 12.7376 15.8132C13.3216 16.2665 14.0516 16.4931 14.9276 16.4931C16.1322 16.4931 17.0082 16.0459 17.5557 15.1516L18.9062 15.9234C18.0059 17.3078 16.6675 18 14.8911 18C13.4554 18 12.2752 17.5467 11.3505 16.6401C10.4502 15.709 10 14.5513 10 13.1669C10 11.7703 10.4441 10.6187 11.3323 9.7121C12.2205 8.79326 13.3703 8.33384 14.7816 8.33384C16.12 8.33384 17.2089 8.81164 18.0485 9.76723C18.9002 10.6983 19.326 11.8377 19.326 13.1853C19.326 13.4181 19.3077 13.657 19.2712 13.902ZM14.7816 9.84073C13.9421 9.84073 13.2364 10.0796 12.6646 10.5574C12.1049 11.0352 11.7581 11.6845 11.6243 12.5054H17.72C17.5861 11.66 17.2515 11.0046 16.7162 10.5391C16.1808 10.0735 15.536 9.84073 14.7816 9.84073Z" fill="white"/>
<path fill-rule="evenodd" clip-rule="evenodd" d="M25.04 6.02968C23.9208 6.21806 22.9886 6.91618 22.5051 7.92801C22.3386 8.27642 22.2488 8.57838 22.1888 8.99223L22.1451 9.29354L22.16 9.69476C22.2018 10.8225 22.607 11.857 23.4481 12.9842C23.7668 13.4113 24.3216 14.0254 24.5738 14.2303L24.6984 14.3316L23.7074 15.2087C23.1623 15.6911 22.4886 16.2885 22.2103 16.536L21.7043 16.9862L21.7377 17.0347C21.8026 17.1289 22.6047 18 22.6265 18C22.6387 18 23.3474 17.3853 24.2014 16.634C25.1643 15.7868 25.7681 15.2735 25.7911 15.2825C25.8114 15.2904 25.9845 15.4098 26.1757 15.5477C26.6959 15.9228 27.3415 16.3563 27.7837 16.6274C28.3006 16.9443 28.9395 17.2977 29.0662 17.3369L29.1672 17.3681L29.5056 17.1892C30.2205 16.8113 31.2291 16.1674 32.1187 15.5212L32.4891 15.2522L34.0606 16.6261C34.925 17.3817 35.6389 18 35.6471 18C35.6685 18 35.9624 17.6889 36.2876 17.3219L36.5684 17.0049L36.5371 16.9664C36.5198 16.9452 36.0565 16.5342 35.5076 16.053C34.9586 15.5718 34.2933 14.9883 34.029 14.7563L33.5486 14.3345L33.7803 14.1228C34.0557 13.8712 34.4278 13.461 34.7294 13.0762C35.3678 12.262 35.8367 11.3109 36.0168 10.4641L36.0724 10.203L36.1 9.23614L36.0586 8.97061C35.9347 8.17505 35.5627 7.43491 35.0379 6.93996C34.5725 6.50095 33.9843 6.19509 33.3279 6.05067L33.1137 6.00354L32.116 6.00411L31.8942 6.05348C30.9028 6.27413 30.1355 6.83099 29.6388 7.69035C29.0036 8.78924 29.0398 10.2897 29.7368 11.7539C30.1086 12.5351 30.5999 13.255 31.2547 13.9783L31.5255 14.2774L31.4269 14.355C30.9119 14.7607 29.1677 15.8783 29.0943 15.8496C28.9655 15.7993 27.5661 14.8836 27.015 14.489L26.7189 14.277L26.9512 14.0295C27.8216 13.1019 28.5091 11.9965 28.832 11.0054C29.2236 9.8036 29.1502 8.58675 28.6319 7.68867C28.141 6.838 27.3752 6.28996 26.3523 6.05725C26.0804 5.99539 25.3365 5.97977 25.04 6.02968ZM25.2866 7.3816C24.2102 7.57975 23.5171 8.44729 23.5171 9.59652C23.5171 10.4578 23.881 11.3491 24.6111 12.2759C24.8393 12.5657 25.6692 13.4298 25.7004 13.4102C25.7734 13.3642 26.344 12.6936 26.5629 12.3963C27.2434 11.4725 27.5907 10.7368 27.7056 9.97561C27.8332 9.13113 27.6152 8.43025 27.063 7.90942L26.8746 7.7317L26.6071 7.59708C26.46 7.52304 26.2628 7.44373 26.169 7.42086C25.9601 7.36994 25.4687 7.34806 25.2866 7.3816ZM32.221 7.39216C31.4094 7.55423 30.8197 8.11152 30.6017 8.92233L30.545 9.13305L30.5429 9.96224L30.6132 10.2489C30.7815 10.9342 31.1291 11.6269 31.6775 12.3696C31.9862 12.7876 32.5169 13.3994 32.571 13.3994C32.6094 13.3994 33.4755 12.4858 33.6614 12.2492C34.0739 11.7243 34.4349 11.0768 34.5804 10.6008C34.7898 9.91554 34.7902 9.23242 34.5814 8.70086C34.3323 8.06653 33.8178 7.60583 33.1662 7.43368C32.8958 7.36223 32.4655 7.34332 32.221 7.39216Z" fill="#222222"/>
<path d="M44.7686 8.57274V10.1164H42.3413V15.0965C42.3413 15.5498 42.4265 15.8744 42.5968 16.0704C42.7793 16.2542 43.0531 16.3522 43.4181 16.3645C43.7831 16.3645 44.2333 16.3522 44.7686 16.3277V17.7611C43.3694 17.9449 42.3474 17.8285 41.7025 17.4119C41.0698 16.9954 40.7535 16.2236 40.7535 15.0965V10.1164H38.9467V8.57274H40.7535V6.4778L42.3413 6V8.57274H44.7686Z" fill="white"/>
<path d="M54.9453 13.902H47.2983C47.4565 14.7106 47.8276 15.3476 48.4116 15.8132C48.9956 16.2665 49.7256 16.4931 50.6016 16.4931C51.8062 16.4931 52.6822 16.0459 53.2297 15.1516L54.5802 15.9234C53.6799 17.3078 52.3415 18 50.5651 18C49.1294 18 47.9492 17.5467 47.0245 16.6401C46.1242 15.709 45.674 14.5513 45.674 13.1669C45.674 11.7703 46.1181 10.6187 47.0063 9.7121C47.8945 8.79326 49.0443 8.33384 50.4556 8.33384C51.794 8.33384 52.8829 8.81164 53.7225 9.76723C54.5742 10.6983 55 11.8377 55 13.1853C55 13.4181 54.9818 13.657 54.9453 13.902ZM50.4556 9.84073C49.6161 9.84073 48.9104 10.0796 48.3386 10.5574C47.7789 11.0352 47.4321 11.6845 47.2983 12.5054H53.394C53.2601 11.66 52.9255 11.0046 52.3902 10.5391C51.8548 10.0735 51.21 9.84073 50.4556 9.84073Z" fill="white"/>
</svg>
