<svg width="60" height="48" viewBox="0 0 60 48" fill="none" xmlns="http://www.w3.org/2000/svg">
<path fill-rule="evenodd" clip-rule="evenodd" d="M13.4647 0.118707C8.94707 0.872251 5.18421 3.66474 3.23241 7.71202C2.56036 9.1057 2.19811 10.3135 1.95572 11.9689L1.77926 13.1742L1.83946 14.779C2.0085 19.29 3.64394 23.4282 7.03925 27.9369C8.32568 29.645 10.565 32.1016 11.5831 32.9212L12.0861 33.3263L8.08563 36.8349C5.8854 38.7646 3.16595 41.1538 2.04263 42.1441L0 43.9448L0.134917 44.1387C0.397122 44.5157 3.63461 48 3.72269 48C3.77186 48 6.63248 45.5412 10.0796 42.536C13.9668 39.1473 16.4039 37.094 16.4965 37.1298C16.5786 37.1616 17.2773 37.639 18.0493 38.1907C20.1492 39.6912 22.7551 41.4252 24.5401 42.5097C26.6265 43.7772 29.2053 45.1908 29.717 45.3475L30.1246 45.4722L31.4903 44.7569C34.3761 43.2451 38.4476 40.6698 42.0386 38.0848L43.5335 37.0086L49.8771 42.5044C53.3661 45.527 56.2477 48 56.2808 48C56.3675 48 57.5537 46.7556 58.8663 45.2878L60 44.0198L59.8733 43.8657C59.8037 43.781 57.9336 42.1368 55.7178 40.212C53.5019 38.2872 50.8162 35.953 49.7495 35.0251L47.8101 33.3378L48.7456 32.4911C49.8573 31.4849 51.359 29.844 52.5768 28.3049C55.1538 25.048 57.0461 21.2435 57.7735 17.8566L57.9979 16.8119L58.109 12.9446L57.9421 11.8825C57.442 8.7002 55.9403 5.73963 53.822 3.75985C51.9432 2.0038 49.5692 0.780345 46.9196 0.202696L46.0548 0.0141775L42.0274 0.016424L41.1322 0.213932C37.1304 1.09651 34.0333 3.32397 32.0282 6.7614C29.4643 11.1569 29.6102 17.1587 32.4236 23.0157C33.9244 26.1404 35.9077 29.0202 38.5508 31.9131L39.6437 33.1094L39.2459 33.42C37.1671 35.0429 30.1265 39.5132 29.8302 39.3984C29.3104 39.1971 23.6618 35.5344 21.437 33.956L20.2417 33.1081L21.1794 32.1178C24.6929 28.4078 27.4682 23.986 28.7716 20.0216C30.3521 15.2144 30.0557 10.347 27.9637 6.75466C25.9821 3.352 22.8911 1.15985 18.7619 0.229017C17.6644 -0.0184554 14.6618 -0.0809393 13.4647 0.118707ZM14.4602 5.52639C10.1152 6.31899 7.31767 9.78916 7.31767 14.3861C7.31767 17.8313 8.7866 21.3965 11.7336 25.1038C12.6549 26.2628 16.0049 29.7193 16.1307 29.6407C16.4254 29.4568 18.7283 26.7742 19.6121 25.5852C22.3589 21.8898 23.7609 18.9471 24.2249 15.9025C24.7399 12.5245 23.8599 9.72101 21.6308 7.63766L20.8703 6.92681L19.7906 6.38832C19.1968 6.09217 18.4009 5.77494 18.0221 5.68346C17.1787 5.47975 15.1951 5.39223 14.4602 5.52639ZM42.4514 5.56866C39.1754 6.21692 36.7948 8.44609 35.9149 11.6893L35.6862 12.5322L35.6774 15.849L35.9614 16.9956C36.6406 19.7366 38.0438 22.5075 40.2574 25.4782C41.5035 27.1505 43.6459 29.5974 43.8641 29.5974C44.0191 29.5974 47.5151 25.9433 48.2657 24.9968C49.9308 22.8972 51.3878 20.3073 51.975 18.4033C52.8204 15.6622 52.8219 12.9297 51.9793 10.8034C50.9738 8.26614 48.8969 6.42331 46.2668 5.73471C45.1753 5.44893 43.4381 5.37329 42.4514 5.56866Z" fill="#3DC564"/>
</svg>
